<svg viewBox="0 0 64 64" xmlns="http://www.w3.org/2000/svg" aria-labelledby="title"
aria-describedby="desc" role="img" xmlns:xlink="http://www.w3.org/1999/xlink">
  <title>Error Server</title>
  <desc>A line styled icon from Orion Icon Library.</desc>
  <path d="M30 62l16-30 16 30H30zm16-18v6"
  stroke-width="4" stroke-linejoin="round" stroke-linecap="round" stroke="#c81010"
  fill="none" data-name="layer2"></path>
  <circle stroke-width="4" stroke-linejoin="round" stroke-linecap="round"
  stroke="#c81010" fill="none" r="1" cy="56" cx="46" data-name="layer2"></circle>
  <path stroke-width="4" stroke-linejoin="round" stroke-linecap="round"
  stroke="#c81010" fill="none" d="M35.3 52H4a2 2 0 0 1-2-2V6a2 2 0 0 1 2-2h48a2 2 0 0 1 2 2v41m-8-19H30m7 16h-7m16-32H30"
  data-name="layer1"></path>
  <circle stroke-width="4" stroke-linejoin="round" stroke-linecap="round"
  stroke="#c81010" fill="none" r="1" cy="12" cx="11" data-name="layer1"></circle>
  <circle stroke-width="4" stroke-linejoin="round" stroke-linecap="round"
  stroke="#c81010" fill="none" r="1" cy="28" cx="11" data-name="layer1"></circle>
  <circle stroke-width="4" stroke-linejoin="round" stroke-linecap="round"
  stroke="#c81010" fill="none" r="1" cy="44" cx="11" data-name="layer1"></circle>
  <path d="M54 20H2m41.9 16H2" stroke-width="4" stroke-linejoin="round"
  stroke-linecap="round" stroke="#c81010" fill="none" data-name="layer1"></path>
</svg>